<svg xmlns="http://www.w3.org/2000/svg" xmlns:xlink="http://www.w3.org/1999/xlink" viewBox="0 0 172.16 131.06"><defs><style>.cls-1{fill:none;}.cls-2{fill:#1b2e61;fill-rule:evenodd;}.cls-3{fill:#727171;}.cls-4{clip-path:url(#clip-path);}.cls-5{fill:#c21828;}.cls-6{fill:#f2ca29;}</style><clipPath id="clip-path"><path class="cls-1" d="M34.4,131.06a10.41,10.41,0,1,1,10.41-10.41A10.41,10.41,0,0,1,34.4,131.06Z"/></clipPath></defs><g id="图层_2" data-name="图层 2"><g id="图层_1-2" data-name="图层 1"><path class="cls-2" d="M62.37,13.58h9.54L67.77,26.84h6.44l3.67-13.27h9.2L83,26.69l5.35.15-1.84,6.9-5.21-.16L77,48.94l-8.8.09-6.38-9.46c-4.71,9.23-11.72,10.16-18.14,11-8.76-.28-15-2-22.68-7.65l11-3.45a15.91,15.91,0,0,0,12.11,4.66c7-1.16,10.18-4.57,11.81-7.74Zm58.54,9.87c0-4.64,0-11.53-6.41-13.57-3.82-.68-12,1.35-17.61,12.15-4.9,10.3-7.72,24.86,5.19,27.3,7.12.46,12.18-6,14.72-9.29l-6.13-3.15c-.8,1.57-2,4.44-6,4.7-3.38-2-3-5.41-.74-13.11,1.69-4.17,4.11-8.48,7.48-9.2,3.55.29,3.12,4.15,2.8,5.53ZM43.29,41.85,19.66,30.29,58.12,12.21v7.9l-21,9.43L54.3,38.69Zm59.47,10.09-20,9.25L66,52.94l5.24-2.41h5.3l6.74,3.6,11.35-5.37Zm25.16-33.58,24.56,10.57L116.72,45.49l1.13-7.76,18.87-8.95L122.62,23V21.26Zm-62-9.81L85.24,0,106,8.91l-6.31,4.67L85.55,7.8,75.07,12.49,65.66,8.68Zm2.15,25,3.68-.08-1.07,3.09Z"/><polygon class="cls-2" points="123.59 74.24 129.8 74.24 129.8 82.06 139.1 82.06 139.1 74.24 145.32 74.24 145.32 96.11 139.1 96.11 139.1 86.99 129.8 86.99 129.8 96.11 123.59 96.11 123.59 74.24"/><path class="cls-2" d="M86,83.72h11.4c0,.35,0,.54,0,.58,0,3.09-.06,5.42-.17,7q-.3,3.78-3.22,4.58a15.06,15.06,0,0,1-2.88.47q-1.64.12-5,.12a40.4,40.4,0,0,1-6-.31,5.42,5.42,0,0,1-2.76-1.21,4.46,4.46,0,0,1-1.07-1.6,10.28,10.28,0,0,1-.51-2.59c-.1-1-.14-3-.14-5.9,0-2,0-3.49.12-4.51a13.14,13.14,0,0,1,.47-2.72,4,4,0,0,1,3-3.09,36.81,36.81,0,0,1,7.71-.59,47.44,47.44,0,0,1,4.89.2,11.11,11.11,0,0,1,3,.7,3.94,3.94,0,0,1,2.26,3.4,11.37,11.37,0,0,1,.22,2.61h-6c0-.62,0-.39-.08-.61a1,1,0,0,0-.3-.55,2.93,2.93,0,0,0-1.74-.5,26.56,26.56,0,0,0-2.67-.09,14.67,14.67,0,0,0-2.71.15,2.54,2.54,0,0,0-1.51.6,2.68,2.68,0,0,0-.56,1.45,37.64,37.64,0,0,0-.14,3.81A37.71,37.71,0,0,0,81.86,89a2.83,2.83,0,0,0,.56,1.55,1.71,1.71,0,0,0,1,.53,20,20,0,0,0,3.15.14,25.86,25.86,0,0,0,3.15-.08,2.69,2.69,0,0,0,1.16-.3,1,1,0,0,0,.53-.61,11,11,0,0,0,.14-1.93c0-.09,0-.29,0-.6H86Z"/><polygon class="cls-2" points="50.78 74.24 60.74 74.24 66.79 89.83 67.08 89.83 67.08 74.24 73.54 74.24 73.54 96.11 63.68 96.11 57.58 80.52 57.19 80.52 57.23 96.11 50.78 96.11 50.78 74.24"/><polygon class="cls-2" points="0 74.24 6.21 74.24 6.21 82.06 15.52 82.06 15.52 74.24 21.73 74.24 21.73 96.11 15.52 96.11 15.52 86.99 6.21 86.99 6.21 96.11 0 96.11 0 74.24"/><polygon class="cls-2" points="23.92 96.11 30.62 96.11 35.84 80.31 36.69 80.31 40.04 91.27 35.19 91.29 37.06 96.16 48.58 96.16 41.15 74.24 31.32 74.24 23.92 96.11"/><polygon class="cls-2" points="147.53 96.11 154.21 96.11 159.42 80.31 160.29 80.31 163.64 91.27 158.79 91.29 160.68 96.16 172.16 96.16 164.73 74.24 154.92 74.24 147.53 96.11"/><path class="cls-2" d="M115.14,88.65h6.2c0,1,0,1.74,0,2.06a5.88,5.88,0,0,1-.58,3,3.7,3.7,0,0,1-2.53,2.17,24.83,24.83,0,0,1-6.5.58c-3.23,0-5.53-.09-6.92-.24a7.11,7.11,0,0,1-3.1-.93,3.85,3.85,0,0,1-1.39-1.67,9.19,9.19,0,0,1-.6-2.92c-.07-1-.12-2.78-.12-5.38s0-4.35.12-5.47a11,11,0,0,1,.43-2.61,4,4,0,0,1,2.88-2.71,39.73,39.73,0,0,1,8.75-.62,40.49,40.49,0,0,1,4.77.2,6,6,0,0,1,2.38.72,3.81,3.81,0,0,1,1.64,2.09,7.35,7.35,0,0,1,.47,3.12c0,.09,0,.46,0,1.08h-6.21a2.22,2.22,0,0,0-.1-.8,1.42,1.42,0,0,0-.28-.62A2.71,2.71,0,0,0,113,79.2a16,16,0,0,0-2.63-.15,10.47,10.47,0,0,0-2.35.14,2.33,2.33,0,0,0-1.32.54,2.91,2.91,0,0,0-.64,1.61,31.19,31.19,0,0,0-.19,4A30.55,30.55,0,0,0,106,89.1a2.08,2.08,0,0,0,2,2.05,11.11,11.11,0,0,0,2.34.14,17.57,17.57,0,0,0,2.95-.13,2,2,0,0,0,1.33-.55c.31-.38.47-.59.49-2"/><path class="cls-3" d="M64.61,115.18l-2.28,8.72a2,2,0,0,1-3.87,0l-2.28-8.72s0,0,0-.07a.24.24,0,0,1,.25-.24h1.48a.3.3,0,0,1,.26.24l2,8.36c0,.17.08.23.22.23s.18-.06.23-.23l2-8.36a.3.3,0,0,1,.27-.24h1.47a.24.24,0,0,1,.25.24S64.61,115.15,64.61,115.18Z"/><path class="cls-3" d="M73.36,125.21H72a.27.27,0,0,1-.28-.28v-9.79a.27.27,0,0,1,.28-.27h1.37a.27.27,0,0,1,.28.27v9.79A.27.27,0,0,1,73.36,125.21Z"/><path class="cls-3" d="M87.3,125.13a13.35,13.35,0,0,1-2.65.19c-1.81,0-3.21-.48-3.21-2.85v-4.86c0-2.36,1.4-2.85,3.21-2.85a13,13,0,0,1,2.65.2c.21,0,.27.09.27.29v.89a.28.28,0,0,1-.27.28H84.46c-.81,0-1.1.28-1.1,1.19v1.51h3.77a.28.28,0,0,1,.28.28v1a.29.29,0,0,1-.28.28H83.36v1.79c0,.92.29,1.2,1.1,1.2H87.3a.27.27,0,0,1,.27.28v.89C87.57,125,87.51,125.1,87.3,125.13Z"/><path class="cls-3" d="M101.55,116.49H99.11v8.44a.27.27,0,0,1-.27.28H97.46a.27.27,0,0,1-.28-.28v-8.44H94.74a.25.25,0,0,1-.27-.25v-1.1a.26.26,0,0,1,.27-.27h6.81a.27.27,0,0,1,.28.27v1.1A.26.26,0,0,1,101.55,116.49Z"/><path class="cls-3" d="M116.19,125.21h-1.41a.74.74,0,0,1-.84-.5l-3.09-6.78c0-.08-.09-.11-.13-.11s-.07,0-.07.11v7a.26.26,0,0,1-.26.28H109.2a.27.27,0,0,1-.27-.28v-9.5a.56.56,0,0,1,.55-.56H111c.29,0,.44.09.61.45l3.24,7.15c0,.07.07.11.11.11s.07,0,.07-.12v-7.32a.26.26,0,0,1,.27-.27h1.19a.26.26,0,0,1,.27.27v9.52A.56.56,0,0,1,116.19,125.21Z"/><path class="cls-3" d="M132,125.21H130.5a.3.3,0,0,1-.27-.23l-.64-2.65h-3.2l-.64,2.65a.29.29,0,0,1-.26.23H124a.24.24,0,0,1-.25-.23s0,0,0-.07l2.28-8.73a2,2,0,0,1,3.87,0l2.28,8.73s0,0,0,.07A.24.24,0,0,1,132,125.21Zm-3.75-8.6c0-.17-.09-.22-.23-.22s-.18,0-.22.22l-1,4.14h2.45Z"/><path class="cls-3" d="M147.94,125.21h-1.41c-.12,0-.22-.14-.22-.28v-6.47c0-.09,0-.14,0-.14s0,.05-.07.09l-1.34,2.66a.49.49,0,0,1-.44.23H143a.49.49,0,0,1-.44-.23l-1.35-2.66s-.06-.09-.07-.09-.05.05-.05.14v6.47c0,.14-.09.28-.22.28h-1.4a.21.21,0,0,1-.24-.21v-9.57a.56.56,0,0,1,.56-.56h1.14a.57.57,0,0,1,.51.34l2.1,4.26c.07.12.1.19.16.19s.08-.07.15-.19l2.1-4.26a.58.58,0,0,1,.52-.34h1.14a.56.56,0,0,1,.55.56V125A.21.21,0,0,1,147.94,125.21Z"/><g class="cls-4"><rect class="cls-5" x="18.78" y="110.24" width="31.24" height="20.83"/><polygon class="cls-6" points="34.4 113.71 32.26 120.31 35.56 121.38 34.4 113.71"/><polygon class="cls-6" points="34.4 113.71 36.55 120.31 33.24 121.38 34.4 113.71"/><polygon class="cls-6" points="41 118.51 34.06 118.51 34.06 121.98 41 118.51"/><polygon class="cls-6" points="41 118.51 35.39 122.59 33.35 119.78 41 118.51"/><polygon class="cls-6" points="27.8 118.51 33.41 122.59 35.45 119.78 27.8 118.51"/><polygon class="cls-6" points="27.8 118.51 34.74 118.51 34.74 121.98 27.8 118.51"/><polygon class="cls-6" points="38.48 126.27 36.34 119.67 33.03 120.74 38.48 126.27"/><polygon class="cls-6" points="38.48 126.27 32.87 122.19 34.91 119.38 38.48 126.27"/><polygon class="cls-6" points="30.32 126.27 35.94 122.19 33.9 119.38 30.32 126.27"/><polygon class="cls-6" points="30.32 126.27 32.47 119.67 35.77 120.74 30.32 126.27"/></g></g></g></svg>